<svg version="1.1" xmlns="http://www.w3.org/2000/svg" viewBox="0 0 2221.2380952380954 892.0271531607982" width="2221.2380952380954" height="892.0271531607982">
  <!-- svg-source:excalidraw -->
  
  <defs>
    <style class="style-fonts">
      @font-face {
        font-family: "Virgil";
        src: url("https://excalidraw.com/Virgil.woff2");
      }
      @font-face {
        font-family: "Cascadia";
        src: url("https://excalidraw.com/Cascadia.woff2");
      }
    </style>
    
  </defs>
  <rect x="0" y="0" width="2221.2380952380954" height="892.0271531607982" fill="#ffffff"></rect><g stroke-linecap="round" transform="translate(790.4285714285713 10) rotate(0 276 180)"><path d="M32 0 C158.4 0.23, 286.78 -0.84, 520 0 M32 0 C161.7 0.62, 291.92 0.67, 520 0 M520 0 C540.24 1.45, 551.32 12.5, 552 32 M520 0 C541.26 1.5, 552.84 9.65, 552 32 M552 32 C552.44 128.9, 553.73 226.19, 552 328 M552 32 C553.71 94.3, 553.04 155.58, 552 328 M552 328 C550.82 348.88, 540.59 359.93, 520 360 M552 328 C553.18 349.37, 539.46 361.49, 520 360 M520 360 C387.94 359.02, 256.97 358.21, 32 360 M520 360 C325.09 360.01, 131.08 359.82, 32 360 M32 360 C9.56 359.8, 0.12 347.35, 0 328 M32 360 C12.82 359.98, 1.95 349.74, 0 328 M0 328 C2.63 209.76, 0.54 91.32, 0 32 M0 328 C-1.32 220.37, -0.51 113.41, 0 32 M0 32 C-0.49 11.36, 10.96 1.05, 32 0 M0 32 C2.2 12.49, 8.58 1.35, 32 0" stroke="#1e1e1e" stroke-width="1" fill="none"></path></g><g stroke-linecap="round" transform="translate(800.4285714285713 14) rotate(0 266.5 20.5)"><path d="M10.25 0 C190 -0.39, 370.08 -0.23, 522.75 0 M10.25 0 C159.41 -0.34, 308.61 -0.13, 522.75 0 M522.75 0 C529.27 -0.27, 532.48 3.72, 533 10.25 M522.75 0 C529.4 0.78, 532.68 3.31, 533 10.25 M533 10.25 C533.29 16.05, 532.33 21.01, 533 30.75 M533 10.25 C532.76 17.79, 532.78 25.65, 533 30.75 M533 30.75 C532.76 37.87, 529.74 41.46, 522.75 41 M533 30.75 C533.28 37.02, 530.09 40.23, 522.75 41 M522.75 41 C390.49 41.14, 257.93 41.35, 10.25 41 M522.75 41 C334.17 41.62, 145.65 41.52, 10.25 41 M10.25 41 C4.1 40.93, -0.31 37.09, 0 30.75 M10.25 41 C3.75 41.3, 0.67 37.24, 0 30.75 M0 30.75 C-0.2 25.75, 0.06 19.94, 0 10.25 M0 30.75 C-0.15 23.56, -0.03 16.87, 0 10.25 M0 10.25 C0.47 4.03, 3.64 -0.46, 10.25 0 M0 10.25 C0.47 3.46, 3.3 0.41, 10.25 0" stroke="#1e1e1e" stroke-width="1" fill="none"></path></g><g stroke-linecap="round" transform="translate(1008.4285714285713 189) rotate(0 73.5 29.5)"><path d="M14.75 0 C48.98 -1.31, 80.05 0.46, 132.25 0 M14.75 0 C40.76 -0.99, 66.08 -1.63, 132.25 0 M132.25 0 C141.86 -1.9, 148.01 4.57, 147 14.75 M132.25 0 C142.93 2.26, 144.74 3.93, 147 14.75 M147 14.75 C145.79 20.99, 145.75 30.65, 147 44.25 M147 14.75 C147.42 21.93, 147.42 27.3, 147 44.25 M147 44.25 C148.67 52.88, 141.94 59.75, 132.25 59 M147 44.25 C147.04 53.73, 141.57 58.96, 132.25 59 M132.25 59 C86.33 60.95, 43.1 59.56, 14.75 59 M132.25 59 C97.71 58.43, 65.06 58.3, 14.75 59 M14.75 59 C5.45 60.29, -1.44 55.41, 0 44.25 M14.75 59 C5.08 56.73, 2.24 55.14, 0 44.25 M0 44.25 C1.71 35.17, -2 21.31, 0 14.75 M0 44.25 C-0.69 36.22, 0.68 29.76, 0 14.75 M0 14.75 C0.12 3.59, 3.8 0.99, 14.75 0 M0 14.75 C-0.14 4.93, 4.99 1.74, 14.75 0" stroke="#1e1e1e" stroke-width="1" fill="none"></path></g><g transform="translate(1034.968633379255 206) rotate(0 46.959938049316406 12.5)"><text x="46.959938049316406" y="0" font-family="Virgil, Segoe UI Emoji" font-size="20px" fill="#1e1e1e" text-anchor="middle" style="white-space: pre;" direction="ltr" dominant-baseline="text-before-edge">add a s3</text></g><g stroke-linecap="round" transform="translate(1174.4285714285713 190) rotate(0 72 30)"><path d="M15 0 C59.71 1.79, 103.34 -0.91, 129 0 M15 0 C43.42 -0.22, 71.66 -0.65, 129 0 M129 0 C137.22 1.39, 145.81 3.01, 144 15 M129 0 C137.01 1.07, 144.06 5.51, 144 15 M144 15 C145.58 24.59, 143.95 32.13, 144 45 M144 15 C145 21.13, 145.15 27.79, 144 45 M144 45 C145.42 56.19, 138.22 58.92, 129 60 M144 45 C143.05 57.22, 137.85 59.66, 129 60 M129 60 C100.67 59.85, 67.11 60.29, 15 60 M129 60 C95.25 59.71, 61.46 59.53, 15 60 M15 60 C5.39 61.31, -0.13 53.77, 0 45 M15 60 C7.15 58.71, -1.84 56.54, 0 45 M0 45 C1.14 37.87, 0.39 28.47, 0 15 M0 45 C0.53 36.22, 0.13 27.65, 0 15 M0 15 C0.41 6.82, 3.07 1.1, 15 0 M0 15 C0.82 4.77, 4.55 -1.33, 15 0" stroke="#1e1e1e" stroke-width="1" fill="none"></path></g><g transform="translate(1209.2286126273018 195) rotate(0 37.19995880126953 25)"><text x="37.19995880126953" y="0" font-family="Virgil, Segoe UI Emoji" font-size="20px" fill="#1e1e1e" text-anchor="middle" style="white-space: pre;" direction="ltr" dominant-baseline="text-before-edge">saved </text><text x="37.19995880126953" y="25" font-family="Virgil, Segoe UI Emoji" font-size="20px" fill="#1e1e1e" text-anchor="middle" style="white-space: pre;" direction="ltr" dominant-baseline="text-before-edge">buckets</text></g><g stroke-linecap="round" transform="translate(847.4285714285713 188) rotate(0 69.5 31)"><path d="M15.5 0 C58.88 2.17, 102.06 -0.14, 123.5 0 M15.5 0 C49.42 -0.32, 84.45 -0.32, 123.5 0 M123.5 0 C134.65 -0.85, 140 6.43, 139 15.5 M123.5 0 C133.14 1.86, 140.89 4.16, 139 15.5 M139 15.5 C137.69 21.97, 137.54 29.89, 139 46.5 M139 15.5 C138.08 26.79, 138.13 38.23, 139 46.5 M139 46.5 C138 55.17, 134.6 60.42, 123.5 62 M139 46.5 C139.96 57.02, 133.9 60.58, 123.5 62 M123.5 62 C80.13 60.86, 36.99 63.37, 15.5 62 M123.5 62 C83.9 63.57, 46.39 63.02, 15.5 62 M15.5 62 C5.65 62.09, -1.17 55.15, 0 46.5 M15.5 62 C7.43 63.98, 1.11 55.45, 0 46.5 M0 46.5 C-1.07 40.17, 1.27 32.42, 0 15.5 M0 46.5 C-0.76 34.01, -0.14 23.43, 0 15.5 M0 15.5 C1.49 5.75, 4.03 1.17, 15.5 0 M0 15.5 C-1.24 6.96, 7.43 0.59, 15.5 0" stroke="#1e1e1e" stroke-width="1" fill="none"></path></g><g transform="translate(867.7786309378487 206.5) rotate(0 49.149940490722656 12.5)"><text x="49.149940490722656" y="0" font-family="Virgil, Segoe UI Emoji" font-size="20px" fill="#1e1e1e" text-anchor="middle" style="white-space: pre;" direction="ltr" dominant-baseline="text-before-edge">browse s3</text></g><g stroke-linecap="round" transform="translate(788.5714285714287 429.714285714286) rotate(0 376.71428571428555 226.1564337232561)"><path d="M32 0 C217.58 -0.24, 402.32 0.4, 721.43 0 M32 0 C218.54 0.09, 405.44 -0.07, 721.43 0 M721.43 0 C744.24 -1.7, 753.8 11.98, 753.43 32 M721.43 0 C742.07 -1.4, 751.94 11.01, 753.43 32 M753.43 32 C751.79 153.92, 753.33 273.72, 753.43 420.31 M753.43 32 C754.89 171.09, 754.21 309.6, 753.43 420.31 M753.43 420.31 C754.22 440.74, 741.33 453.33, 721.43 452.31 M753.43 420.31 C753.8 440.28, 744.44 451.46, 721.43 452.31 M721.43 452.31 C575.93 454.13, 429.3 452.8, 32 452.31 M721.43 452.31 C465.51 453.43, 210.09 453.9, 32 452.31 M32 452.31 C8.85 452.37, 0.5 441.97, 0 420.31 M32 452.31 C10.35 450.32, -0.53 442.67, 0 420.31 M0 420.31 C-1.27 313.31, 0.07 206.23, 0 32 M0 420.31 C-2.08 315.7, -2.01 211.86, 0 32 M0 32 C0.99 10.87, 11.2 -0.29, 32 0 M0 32 C-2.3 10.79, 8.79 -0.45, 32 0" stroke="#1e1e1e" stroke-width="1" fill="none"></path></g><g stroke-linecap="round" transform="translate(798.5714285714284 432.28571428571445) rotate(0 362.21428571428567 26.21428571428578)"><path d="M13.11 0 C224.39 1.04, 436.15 0.15, 711.32 0 M13.11 0 C228.61 -2.16, 444.64 -2.67, 711.32 0 M711.32 0 C720.43 1.31, 723.83 3.15, 724.43 13.11 M711.32 0 C718.57 0.34, 724.71 3.3, 724.43 13.11 M724.43 13.11 C725.93 20.8, 725.45 31.89, 724.43 39.32 M724.43 13.11 C724.36 20.15, 725.05 26.85, 724.43 39.32 M724.43 39.32 C723 49.08, 720.38 51.24, 711.32 52.43 M724.43 39.32 C726.11 47.21, 718.03 54.51, 711.32 52.43 M711.32 52.43 C475.65 54.6, 240.29 55.3, 13.11 52.43 M711.32 52.43 C467.2 50.91, 222.75 50.7, 13.11 52.43 M13.11 52.43 C4.87 52.75, -0.28 46.33, 0 39.32 M13.11 52.43 C3.84 53.45, -0.59 49.04, 0 39.32 M0 39.32 C1.85 29.66, -0.57 25.58, 0 13.11 M0 39.32 C0.12 28.97, 0.5 19.73, 0 13.11 M0 13.11 C0.53 4.08, 2.37 0.1, 13.11 0 M0 13.11 C-1.88 3.91, 6.04 -1.03, 13.11 0" stroke="#1e1e1e" stroke-width="1" fill="none"></path></g><g stroke-linecap="round"><g transform="translate(922.9136931782768 262.5714285714286) rotate(0 1.7355972503937664 74.99090740355021)"><path d="M-0.13 0.05 C0.47 25.03, 2.98 125.06, 3.6 150.04 M0.08 -0.06 C0.67 24.87, 2.96 124.76, 3.53 149.79" stroke="#1e1e1e" stroke-width="1" fill="none"></path></g><g transform="translate(922.9136931782768 262.5714285714286) rotate(0 1.7355972503937664 74.99090740355021)"><path d="M-7.37 121.85 C-3.99 130.4, -0.75 138.69, 3.53 149.79 M-7.37 121.85 C-4.39 129.65, -1.13 137.55, 3.53 149.79" stroke="#1e1e1e" stroke-width="1" fill="none"></path></g><g transform="translate(922.9136931782768 262.5714285714286) rotate(0 1.7355972503937664 74.99090740355021)"><path d="M13.15 121.38 C10.41 130.05, 7.53 138.48, 3.53 149.79 M13.15 121.38 C10.32 129.33, 7.79 137.36, 3.53 149.79" stroke="#1e1e1e" stroke-width="1" fill="none"></path></g></g><mask></mask><g stroke-linecap="round" transform="translate(821.7142857142853 552.5714285714289) rotate(0 68.57142857142867 113.57142857142856)"><path d="M32 0 C53.03 0.19, 68.49 -0.34, 105.14 0 M32 0 C58.08 0.34, 84.92 0.93, 105.14 0 M105.14 0 C125.83 -1.9, 138.88 10.95, 137.14 32 M105.14 0 C127.58 2.05, 138.07 9.53, 137.14 32 M137.14 32 C138.61 97.04, 139.1 161.56, 137.14 195.14 M137.14 32 C138.56 77.61, 138.11 122.91, 137.14 195.14 M137.14 195.14 C137.9 216.22, 128.28 226.73, 105.14 227.14 M137.14 195.14 C138 214.67, 128.36 228.18, 105.14 227.14 M105.14 227.14 C80.29 228.19, 57.62 229.47, 32 227.14 M105.14 227.14 C79.51 226.95, 55.45 228.35, 32 227.14 M32 227.14 C12.46 227.33, -0.44 215.69, 0 195.14 M32 227.14 C11.09 225.21, 1.79 218.04, 0 195.14 M0 195.14 C-0.11 153.28, -0.57 109.93, 0 32 M0 195.14 C0.68 129.78, -0.06 64.84, 0 32 M0 32 C-0.73 11.13, 10.51 0.66, 32 0 M0 32 C-0.34 11.16, 8.9 2.12, 32 0" stroke="#1e1e1e" stroke-width="1" fill="none"></path></g><g transform="translate(837.8857737949913 628.6428571428575) rotate(0 52.399940490722656 37.5)"><text x="52.399940490722656" y="0" font-family="Virgil, Segoe UI Emoji" font-size="20px" fill="#1e1e1e" text-anchor="middle" style="white-space: pre;" direction="ltr" dominant-baseline="text-before-edge">List of </text><text x="52.399940490722656" y="25" font-family="Virgil, Segoe UI Emoji" font-size="20px" fill="#1e1e1e" text-anchor="middle" style="white-space: pre;" direction="ltr" dominant-baseline="text-before-edge">directories</text><text x="52.399940490722656" y="50" font-family="Virgil, Segoe UI Emoji" font-size="20px" fill="#1e1e1e" text-anchor="middle" style="white-space: pre;" direction="ltr" dominant-baseline="text-before-edge">(tree view)</text></g><g stroke-linecap="round" transform="translate(992.3106854960909 533.3617795017882) rotate(0 242.13922055882182 135.05454876053085)"><path d="M32 0 C131.19 -0.5, 229.4 0.01, 452.28 0 M32 0 C152.95 1.36, 273.41 0.76, 452.28 0 M452.28 0 C473.69 0.63, 484.36 9.04, 484.28 32 M452.28 0 C473.56 -0.63, 482.06 12.47, 484.28 32 M484.28 32 C482.57 87.14, 481.5 143.64, 484.28 238.11 M484.28 32 C482.03 112.05, 482.38 190.58, 484.28 238.11 M484.28 238.11 C484.69 260.6, 474.46 271.05, 452.28 270.11 M484.28 238.11 C484.45 258.39, 472.35 268.45, 452.28 270.11 M452.28 270.11 C298.79 267.35, 144.31 267.55, 32 270.11 M452.28 270.11 C287.38 268.67, 122.9 268.93, 32 270.11 M32 270.11 C8.89 269.85, -0.96 259.71, 0 238.11 M32 270.11 C11.97 271.58, -1.97 259.47, 0 238.11 M0 238.11 C2.1 168.17, 1.13 94.29, 0 32 M0 238.11 C0.6 187.71, 1.44 136.17, 0 32 M0 32 C-0.65 12.05, 9.65 -1.58, 32 0 M0 32 C-1.5 10.82, 11.23 -1.06, 32 0" stroke="#1e1e1e" stroke-width="1" fill="none"></path></g><g stroke-linecap="round" transform="translate(1114.5714285714284 566.4285714285718) rotate(0 55.71428571428578 18.92857142857156)"><path d="M9.46 0 C38.01 0.07, 66.85 0.58, 101.96 0 M9.46 0 C42.06 -0.24, 74.3 -0.33, 101.96 0 M101.96 0 C108.77 -0.04, 110.89 2.69, 111.43 9.46 M101.96 0 C107.68 -0.64, 111.69 3.87, 111.43 9.46 M111.43 9.46 C110.99 14.75, 111.57 19.48, 111.43 28.39 M111.43 9.46 C111.45 14.57, 111.34 19.39, 111.43 28.39 M111.43 28.39 C111.47 34.39, 108.87 37.25, 101.96 37.86 M111.43 28.39 C111.76 34.82, 107.69 37.19, 101.96 37.86 M101.96 37.86 C78.71 37.06, 55.14 37.44, 9.46 37.86 M101.96 37.86 C72.72 37.68, 43.68 37.87, 9.46 37.86 M9.46 37.86 C3.63 37.37, 0 34.4, 0 28.39 M9.46 37.86 C3.5 37.89, -0.42 34.77, 0 28.39 M0 28.39 C-0.49 22.63, -0.34 16.24, 0 9.46 M0 28.39 C0.19 21.23, -0.23 14.25, 0 9.46 M0 9.46 C-0.15 3.59, 3.37 0.51, 9.46 0 M0 9.46 C-0.69 3.75, 2.53 -0.22, 9.46 0" stroke="#1e1e1e" stroke-width="1" fill="none"></path></g><g transform="translate(1129.2536326817103 575.3571428571433) rotate(0 41.032081604003906 10)"><text x="41.032081604003906" y="0" font-family="Virgil, Segoe UI Emoji" font-size="16px" fill="#1e1e1e" text-anchor="middle" style="white-space: pre;" direction="ltr" dominant-baseline="text-before-edge">upload file</text></g><g stroke-linecap="round" transform="translate(1013.1428571428569 566.4285714285718) rotate(0 49.285714285714334 17.500000000000114)"><path d="M8.75 0 C28.98 -0.18, 48.89 0.03, 89.82 0 M8.75 0 C28.17 0.18, 47.7 0.05, 89.82 0 M89.82 0 C95.81 -0.15, 98.3 2.73, 98.57 8.75 M89.82 0 C96.11 -0.33, 99.03 2.97, 98.57 8.75 M98.57 8.75 C98.82 14.06, 98.18 20.52, 98.57 26.25 M98.57 8.75 C98.74 12.84, 98.71 17.1, 98.57 26.25 M98.57 26.25 C98.66 31.69, 95.24 34.45, 89.82 35 M98.57 26.25 C98.82 32.62, 96.3 35.45, 89.82 35 M89.82 35 C57.59 34.43, 25.41 34.97, 8.75 35 M89.82 35 C68.1 35.13, 46.49 34.81, 8.75 35 M8.75 35 C2.97 34.85, -0.06 31.78, 0 26.25 M8.75 35 C2.9 35.34, -0.04 32.42, 0 26.25 M0 26.25 C0.28 21.01, -0.03 14.76, 0 8.75 M0 26.25 C0.1 21.05, -0.03 15.5, 0 8.75 M0 8.75 C-0.01 2.8, 2.94 0.48, 8.75 0 M0 8.75 C-0.42 3.54, 2.36 -0.05, 8.75 0" stroke="#1e1e1e" stroke-width="1" fill="none"></path></g><g transform="translate(1038.692525591169 573.9285714285719) rotate(0 23.736045837402344 10)"><text x="23.736045837402344" y="0" font-family="Virgil, Segoe UI Emoji" font-size="16px" fill="#1e1e1e" text-anchor="middle" style="white-space: pre;" direction="ltr" dominant-baseline="text-before-edge">select</text></g><g stroke-linecap="round" transform="translate(1227.4285714285709 566.4285714285716) rotate(0 36.428571428571786 25)"><path d="M12.5 0 C29.93 0.06, 47.33 0.39, 60.36 0 M12.5 0 C25.14 0.11, 39.06 -0.7, 60.36 0 M60.36 0 C67.33 -1.46, 72.83 2.2, 72.86 12.5 M60.36 0 C68.68 -0.45, 71.63 5.42, 72.86 12.5 M72.86 12.5 C72.13 21.06, 71.66 27.24, 72.86 37.5 M72.86 12.5 C72.56 22.43, 72.04 32.62, 72.86 37.5 M72.86 37.5 C74.7 47.82, 70.4 50.59, 60.36 50 M72.86 37.5 C72.73 47.78, 67.34 50.42, 60.36 50 M60.36 50 C42.58 51.06, 30.18 47.64, 12.5 50 M60.36 50 C42.77 49.98, 24.04 50.67, 12.5 50 M12.5 50 C4.21 49, 1.28 44.4, 0 37.5 M12.5 50 C4 50.13, -0.66 47, 0 37.5 M0 37.5 C0.55 30.27, -0.77 20.75, 0 12.5 M0 37.5 C0.16 31.11, -0.64 24.46, 0 12.5 M0 12.5 C-1.26 5.15, 2.81 0.39, 12.5 0 M0 12.5 C-0.79 3.42, 4.89 -1.69, 12.5 0" stroke="#1e1e1e" stroke-width="1" fill="none"></path></g><g transform="translate(1234.9450868879044 571.4285714285716) rotate(0 28.91205596923828 20)"><text x="28.91205596923828" y="0" font-family="Virgil, Segoe UI Emoji" font-size="16px" fill="#1e1e1e" text-anchor="middle" style="white-space: pre;" direction="ltr" dominant-baseline="text-before-edge">upload </text><text x="28.91205596923828" y="20" font-family="Virgil, Segoe UI Emoji" font-size="16px" fill="#1e1e1e" text-anchor="middle" style="white-space: pre;" direction="ltr" dominant-baseline="text-before-edge">dir</text></g><g stroke-linecap="round" transform="translate(1301.714285714286 565.0000000000005) rotate(0 42.85714285714289 35)"><path d="M17.5 0 C36.44 -2.14, 53.24 1.58, 68.21 0 M17.5 0 C33.92 -1.11, 49.79 0.77, 68.21 0 M68.21 0 C80.29 -0.3, 85.66 5.14, 85.71 17.5 M68.21 0 C80.63 1.34, 87.69 5.41, 85.71 17.5 M85.71 17.5 C84.68 24.43, 84.49 32.06, 85.71 52.5 M85.71 17.5 C86.53 25.81, 85.67 35.31, 85.71 52.5 M85.71 52.5 C85.35 63.58, 81.05 70.23, 68.21 70 M85.71 52.5 C84.72 62.5, 82.13 68.84, 68.21 70 M68.21 70 C55.3 69.08, 45.43 69.61, 17.5 70 M68.21 70 C52.97 70.03, 36.09 70.96, 17.5 70 M17.5 70 C5.73 71.18, -0.54 63.51, 0 52.5 M17.5 70 C4.85 70.38, -0.48 64.25, 0 52.5 M0 52.5 C0.76 42.26, 1.63 33.34, 0 17.5 M0 52.5 C0.29 43.11, 0.61 34.66, 0 17.5 M0 17.5 C-0.92 4.35, 4.03 0.16, 17.5 0 M0 17.5 C-1.71 4.77, 5.72 -0.64, 17.5 0" stroke="#1e1e1e" stroke-width="1" fill="none"></path></g><g transform="translate(1310.555361066546 580.0000000000005) rotate(0 34.01606750488281 20)"><text x="34.01606750488281" y="0" font-family="Virgil, Segoe UI Emoji" font-size="16px" fill="#1e1e1e" text-anchor="middle" style="white-space: pre;" direction="ltr" dominant-baseline="text-before-edge">download</text><text x="34.01606750488281" y="20" font-family="Virgil, Segoe UI Emoji" font-size="16px" fill="#1e1e1e" text-anchor="middle" style="white-space: pre;" direction="ltr" dominant-baseline="text-before-edge">this dir</text></g><g stroke-linecap="round" transform="translate(1388.8571428571431 565.0000000000005) rotate(0 42.142857142857224 35)"><path d="M17.5 0 C36.43 1.47, 54.84 0.61, 66.79 0 M17.5 0 C34.68 -0.42, 53.59 -0.71, 66.79 0 M66.79 0 C79.91 -0.94, 82.55 6.08, 84.29 17.5 M66.79 0 C78.27 1.75, 84.33 3.83, 84.29 17.5 M84.29 17.5 C84.13 26.72, 84.9 37.47, 84.29 52.5 M84.29 17.5 C84.36 25.61, 83.95 33.87, 84.29 52.5 M84.29 52.5 C82.54 65.59, 78.9 70.44, 66.79 70 M84.29 52.5 C85.62 65.95, 79.04 68.07, 66.79 70 M66.79 70 C49.25 71.84, 34.06 70.94, 17.5 70 M66.79 70 C51.69 69.36, 34.92 69.16, 17.5 70 M17.5 70 C6.34 71.71, -0.29 63.69, 0 52.5 M17.5 70 C7.29 70.96, 0.66 64.64, 0 52.5 M0 52.5 C-0.43 40.51, 0.31 23.01, 0 17.5 M0 52.5 C0.02 42.53, 0.03 34.56, 0 17.5 M0 17.5 C0.2 6.64, 3.91 0.84, 17.5 0 M0 17.5 C-0.9 3.72, 5.07 -0.23, 17.5 0" stroke="#1e1e1e" stroke-width="1" fill="none"></path></g><g transform="translate(1396.9839324951174 580.0000000000005) rotate(0 34.01606750488281 20)"><text x="34.01606750488281" y="0" font-family="Virgil, Segoe UI Emoji" font-size="16px" fill="#1e1e1e" text-anchor="middle" style="white-space: pre;" direction="ltr" dominant-baseline="text-before-edge">download</text><text x="34.01606750488281" y="20" font-family="Virgil, Segoe UI Emoji" font-size="16px" fill="#1e1e1e" text-anchor="middle" style="white-space: pre;" direction="ltr" dominant-baseline="text-before-edge">selected</text></g><g stroke-linecap="round"><g transform="translate(1083.142857142857 188.28571428571422) rotate(0 -261.0324629307438 -28.6895585077462)"><path d="M0.62 -0.26 C-86.17 -9.61, -434.7 -45.88, -521.63 -55.24 M-0.51 -1.44 C-87.4 -11.23, -435.86 -48.11, -522.69 -57.12" stroke="#1e1e1e" stroke-width="1" fill="none"></path></g><g transform="translate(1083.142857142857 188.28571428571422) rotate(0 -261.0324629307438 -28.6895585077462)"><path d="M-493.58 -64.38 C-500.57 -62.92, -505.97 -60.17, -522.69 -57.12 M-493.58 -64.38 C-500.43 -62.72, -507.27 -62.02, -522.69 -57.12" stroke="#1e1e1e" stroke-width="1" fill="none"></path></g><g transform="translate(1083.142857142857 188.28571428571422) rotate(0 -261.0324629307438 -28.6895585077462)"><path d="M-495.72 -43.97 C-502.38 -47.16, -507.29 -49.04, -522.69 -57.12 M-495.72 -43.97 C-502.2 -47.18, -508.53 -51.36, -522.69 -57.12" stroke="#1e1e1e" stroke-width="1" fill="none"></path></g></g><mask></mask><g stroke-linecap="round" transform="translate(10 19.714285714285666) rotate(0 276 180)"><path d="M32 0 C148.15 -2.42, 264.74 -2.62, 520 0 M32 0 C174.81 0.9, 317.04 1.21, 520 0 M520 0 C540.92 -0.01, 552.9 8.67, 552 32 M520 0 C543.5 -1.25, 551.65 9.05, 552 32 M552 32 C550.68 124.42, 549.74 214.85, 552 328 M552 32 C551.31 123.48, 551.84 215.72, 552 328 M552 328 C550.74 349.36, 540.17 361.51, 520 360 M552 328 C550.3 348.15, 540.41 359.51, 520 360 M520 360 C376.3 360.23, 231.92 360.47, 32 360 M520 360 C393.63 359.13, 267.12 359.12, 32 360 M32 360 C9.4 361.33, 1.87 351.02, 0 328 M32 360 C12.91 360.23, -0.51 349.7, 0 328 M0 328 C-1.93 211.25, -1.18 93.33, 0 32 M0 328 C-1.91 222.01, -2.49 114.09, 0 32 M0 32 C-1.14 9.16, 12.45 0.16, 32 0 M0 32 C1.59 8.67, 11.22 1.74, 32 0" stroke="#1e1e1e" stroke-width="1" fill="none"></path></g><g stroke-linecap="round" transform="translate(20 23.714285714285666) rotate(0 266.5 20.5)"><path d="M10.25 0 C214.78 0.14, 419.11 0.44, 522.75 0 M10.25 0 C143.31 0, 276.56 -0.13, 522.75 0 M522.75 0 C529.89 -0.69, 533.65 3.04, 533 10.25 M522.75 0 C529.46 -0.56, 533.06 2.93, 533 10.25 M533 10.25 C532.57 17.38, 533.08 24.13, 533 30.75 M533 10.25 C532.85 15.76, 532.72 21.55, 533 30.75 M533 30.75 C532.6 38.1, 529.08 40.65, 522.75 41 M533 30.75 C532.68 37.42, 529.54 40.73, 522.75 41 M522.75 41 C360.96 40.98, 199.47 41.16, 10.25 41 M522.75 41 C383.15 40.38, 243.52 40.58, 10.25 41 M10.25 41 C4.06 41.58, 0.67 37.65, 0 30.75 M10.25 41 C3.24 41.13, 0.78 38.11, 0 30.75 M0 30.75 C0.15 27.05, 0.44 22.98, 0 10.25 M0 30.75 C-0.27 25.85, -0.2 21.25, 0 10.25 M0 10.25 C0.61 3.47, 3.89 -0.6, 10.25 0 M0 10.25 C0.19 4.02, 4.03 0.59, 10.25 0" stroke="#1e1e1e" stroke-width="1" fill="none"></path></g><g stroke-linecap="round" transform="translate(110.28571428571428 98.28571428571422) rotate(0 192.8571428571429 97.14285714285722)"><path d="M32 0 C150.55 0.29, 271.87 -0.11, 353.71 0 M32 0 C150.35 0.59, 267.13 1.37, 353.71 0 M353.71 0 C376.92 -0.37, 384.35 10.48, 385.71 32 M353.71 0 C372.95 0.14, 386.34 12.03, 385.71 32 M385.71 32 C385.95 82.81, 384.65 130.91, 385.71 162.29 M385.71 32 C384.76 63.17, 385.24 92.13, 385.71 162.29 M385.71 162.29 C385.7 185.3, 374.14 195.71, 353.71 194.29 M385.71 162.29 C383.55 181.75, 373.22 194.72, 353.71 194.29 M353.71 194.29 C254.26 194.28, 156.61 193.37, 32 194.29 M353.71 194.29 C255.56 193.08, 157.85 193.94, 32 194.29 M32 194.29 C11.07 193.99, -0.05 184.61, 0 162.29 M32 194.29 C10.27 193.1, -0.98 183.3, 0 162.29 M0 162.29 C-1.52 122.19, -0.44 86.63, 0 32 M0 162.29 C-0.38 131.04, -0.14 98.85, 0 32 M0 32 C1.29 9.57, 11.07 -0.82, 32 0 M0 32 C2.29 9.58, 11.81 2.1, 32 0" stroke="#1e1e1e" stroke-width="1" fill="none"></path></g><g transform="translate(151.71428571428572 124) rotate(0 164.33633422851562 60)"><text x="0" y="0" font-family="Virgil, Segoe UI Emoji" font-size="16px" fill="#1e1e1e" text-anchor="start" style="white-space: pre;" direction="ltr" dominant-baseline="text-before-edge">Unique Name: (unique accros saved s3's) </text><text x="0" y="20" font-family="Virgil, Segoe UI Emoji" font-size="16px" fill="#1e1e1e" text-anchor="start" style="white-space: pre;" direction="ltr" dominant-baseline="text-before-edge">endpoint: </text><text x="0" y="40" font-family="Virgil, Segoe UI Emoji" font-size="16px" fill="#1e1e1e" text-anchor="start" style="white-space: pre;" direction="ltr" dominant-baseline="text-before-edge">bucket:</text><text x="0" y="60" font-family="Virgil, Segoe UI Emoji" font-size="16px" fill="#1e1e1e" text-anchor="start" style="white-space: pre;" direction="ltr" dominant-baseline="text-before-edge">access key:</text><text x="0" y="80" font-family="Virgil, Segoe UI Emoji" font-size="16px" fill="#1e1e1e" text-anchor="start" style="white-space: pre;" direction="ltr" dominant-baseline="text-before-edge">secret key:</text><text x="0" y="100" font-family="Virgil, Segoe UI Emoji" font-size="16px" fill="#1e1e1e" text-anchor="start" style="white-space: pre;" direction="ltr" dominant-baseline="text-before-edge">(these are saved to a local database)</text></g><g stroke-linecap="round" transform="translate(304.5714285714286 246.8571428571429) rotate(0 77.14285714285711 15)"><path d="M7.5 0 C59.88 0.54, 111.52 0.34, 146.79 0 M7.5 0 C53.04 0.15, 98.55 0, 146.79 0 M146.79 0 C152.09 -0.16, 154.43 2.24, 154.29 7.5 M146.79 0 C152.15 0.52, 153.85 2.59, 154.29 7.5 M154.29 7.5 C154.18 12.93, 154.16 18.4, 154.29 22.5 M154.29 7.5 C154.45 11.62, 154.18 15.47, 154.29 22.5 M154.29 22.5 C154.51 27.52, 151.71 30.33, 146.79 30 M154.29 22.5 C153.72 27.18, 151.32 29.53, 146.79 30 M146.79 30 C103.97 30.02, 61.34 30.45, 7.5 30 M146.79 30 C112.16 29.96, 77.15 30.07, 7.5 30 M7.5 30 C2.33 29.67, 0.34 27.73, 0 22.5 M7.5 30 C1.98 30.25, 0.19 27.62, 0 22.5 M0 22.5 C0.22 18.75, -0.3 14.14, 0 7.5 M0 22.5 C0.13 17.24, -0.1 11.72, 0 7.5 M0 7.5 C-0.19 2.72, 2.33 0.22, 7.5 0 M0 7.5 C0.45 2.91, 1.96 -0.12, 7.5 0" stroke="#1e1e1e" stroke-width="1" fill="none"></path></g><g transform="translate(320.2661579677037 251.8571428571429) rotate(0 61.44812774658203 10)"><text x="61.44812774658203" y="0" font-family="Virgil, Segoe UI Emoji" font-size="16px" fill="#1e1e1e" text-anchor="middle" style="white-space: pre;" direction="ltr" dominant-baseline="text-before-edge">save bucket/s3</text></g><g stroke-linecap="round" transform="translate(136.00000000000006 244) rotate(0 77.14285714285711 15)"><path d="M7.5 0 C50.71 0.21, 93.36 0.09, 146.79 0 M7.5 0 C44.84 0.42, 82.73 0.29, 146.79 0 M146.79 0 C151.68 -0.11, 153.83 2.89, 154.29 7.5 M146.79 0 C151.76 0.21, 153.97 2.23, 154.29 7.5 M154.29 7.5 C154.48 11.56, 154.26 16.55, 154.29 22.5 M154.29 7.5 C154.41 10.56, 154.38 14.11, 154.29 22.5 M154.29 22.5 C153.9 27.17, 151.68 30.24, 146.79 30 M154.29 22.5 C154.31 27, 151.87 30.5, 146.79 30 M146.79 30 C103.73 29.51, 60.53 29.6, 7.5 30 M146.79 30 C113.82 30.24, 80.89 30, 7.5 30 M7.5 30 C2.13 30.06, -0.04 27.46, 0 22.5 M7.5 30 C2.56 29.79, 0.33 27.52, 0 22.5 M0 22.5 C0.34 17.1, -0.17 12.08, 0 7.5 M0 22.5 C0.2 17.69, -0.06 13.03, 0 7.5 M0 7.5 C0.21 2.02, 2.14 0.24, 7.5 0 M0 7.5 C-0.17 2.11, 2.81 -0.02, 7.5 0" stroke="#1e1e1e" stroke-width="1" fill="none"></path></g><g transform="translate(160.91074044363842 249) rotate(0 52.23211669921875 10)"><text x="52.23211669921875" y="0" font-family="Virgil, Segoe UI Emoji" font-size="16px" fill="#1e1e1e" text-anchor="middle" style="white-space: pre;" direction="ltr" dominant-baseline="text-before-edge">assign groups</text></g><g stroke-linecap="round"><g transform="translate(1269.8674044807944 188.28571428571422) rotate(0 172.34032081739326 -12.069017128321121)"><path d="M-0.21 0.12 C57.26 -3.88, 287.43 -19.92, 344.89 -23.92 M0.1 -0.01 C57.55 -4.08, 287.32 -20.23, 344.8 -24.26" stroke="#1e1e1e" stroke-width="1" fill="none"></path></g><g transform="translate(1269.8674044807944 188.28571428571422) rotate(0 172.34032081739326 -12.069017128321121)"><path d="M317.4 -12.05 C326.83 -15.75, 336.01 -20.49, 344.8 -24.26 M317.4 -12.05 C327.57 -16.53, 338.08 -21.3, 344.8 -24.26" stroke="#1e1e1e" stroke-width="1" fill="none"></path></g><g transform="translate(1269.8674044807944 188.28571428571422) rotate(0 172.34032081739326 -12.069017128321121)"><path d="M315.96 -32.52 C325.89 -29.34, 335.55 -27.2, 344.8 -24.26 M315.96 -32.52 C326.71 -29.27, 337.76 -26.31, 344.8 -24.26" stroke="#1e1e1e" stroke-width="1" fill="none"></path></g></g><mask></mask><g stroke-linecap="round" transform="translate(1628.5714285714284 21.14285714285711) rotate(0 291.33333333333337 190)"><path d="M32 0 C191.8 -0.9, 350.35 -1.4, 550.67 0 M32 0 C171.65 0.82, 311.64 0.52, 550.67 0 M550.67 0 C573.49 1.41, 584.19 11, 582.67 32 M550.67 0 C569.81 -2.21, 580.69 11.02, 582.67 32 M582.67 32 C580.77 141.62, 581.49 252.89, 582.67 348 M582.67 32 C585.21 121.56, 585.3 209.21, 582.67 348 M582.67 348 C583.07 369.34, 571.36 379.38, 550.67 380 M582.67 348 C583.84 371.26, 573.98 379.72, 550.67 380 M550.67 380 C377.58 380.19, 204.95 380.28, 32 380 M550.67 380 C423.48 378.65, 295.28 378.97, 32 380 M32 380 C9.81 381.53, -1.86 369.68, 0 348 M32 380 C11.89 380.68, -1.65 370.85, 0 348 M0 348 C-0.13 266.35, -2.81 187.21, 0 32 M0 348 C-2.17 227.71, -1.48 107.61, 0 32 M0 32 C0.89 8.86, 8.7 -1.08, 32 0 M0 32 C-1.78 9.47, 10.72 -1.6, 32 0" stroke="#1e1e1e" stroke-width="1" fill="none"></path></g><g stroke-linecap="round" transform="translate(1639.126984126984 25.36507936507934) rotate(0 281.30555555555554 21.638888888888886)"><path d="M10.82 0 C209.68 -0.51, 409.02 -0.71, 551.79 0 M10.82 0 C151.11 -0.06, 291.24 0.17, 551.79 0 M551.79 0 C559.57 0.12, 561.9 2.89, 562.61 10.82 M551.79 0 C558.26 0.13, 563.04 2.87, 562.61 10.82 M562.61 10.82 C562.99 19.47, 562.47 28.78, 562.61 32.46 M562.61 10.82 C562.97 16.7, 562.74 23.2, 562.61 32.46 M562.61 32.46 C562.37 39.44, 559.39 43.91, 551.79 43.28 M562.61 32.46 C563.35 39.57, 559.29 43.76, 551.79 43.28 M551.79 43.28 C365.94 42.33, 180.21 42.28, 10.82 43.28 M551.79 43.28 C425.17 43.46, 298.73 43.44, 10.82 43.28 M10.82 43.28 C2.91 43.41, 0.4 39.89, 0 32.46 M10.82 43.28 C2.99 43.85, -0.39 40.22, 0 32.46 M0 32.46 C-0.81 23.94, 0.52 15.79, 0 10.82 M0 32.46 C0.22 25.79, 0.21 19.48, 0 10.82 M0 10.82 C-0.74 3.2, 3.03 -0.39, 10.82 0 M0 10.82 C0.02 3.01, 4.29 -0.51, 10.82 0" stroke="#1e1e1e" stroke-width="1" fill="none"></path></g><g stroke-linecap="round"><g transform="translate(205.99999999999983 282.57142857142856) rotate(0 -14.813009515838345 104.98681140672412)"><path d="M-0.1 -0.22 C-5.04 34.78, -24.88 175.17, -29.83 210.2 M0.32 0.23 C-4.62 35.15, -24.92 174.85, -29.95 209.84" stroke="#1e1e1e" stroke-width="1" fill="none"></path></g><g transform="translate(205.99999999999983 282.57142857142856) rotate(0 -14.813009515838345 104.98681140672412)"><path d="M-36.07 180.47 C-35.08 187.37, -32.91 194.04, -29.95 209.84 M-36.07 180.47 C-34.53 188.74, -32.77 196.74, -29.95 209.84" stroke="#1e1e1e" stroke-width="1" fill="none"></path></g><g transform="translate(205.99999999999983 282.57142857142856) rotate(0 -14.813009515838345 104.98681140672412)"><path d="M-15.76 183.41 C-19.32 189.63, -21.69 195.65, -29.95 209.84 M-15.76 183.41 C-19.81 190.86, -23.65 198.06, -29.95 209.84" stroke="#1e1e1e" stroke-width="1" fill="none"></path></g></g><mask></mask><g stroke-linecap="round" transform="translate(17.42857142857116 494.0000000000001) rotate(0 159.28571428571422 98.57142857142856)"><path d="M32 0 C106.18 0.51, 178.36 -2.42, 286.57 0 M32 0 C84.25 -0.5, 135.38 0.46, 286.57 0 M286.57 0 C308.83 -0.06, 318.69 8.86, 318.57 32 M286.57 0 C305.89 0.68, 320.87 9.67, 318.57 32 M318.57 32 C318.23 86.26, 316.85 135.99, 318.57 165.14 M318.57 32 C318.74 72.27, 318.43 112.63, 318.57 165.14 M318.57 165.14 C318.64 185.18, 307.73 195.5, 286.57 197.14 M318.57 165.14 C319.2 186.89, 305.83 197.08, 286.57 197.14 M286.57 197.14 C216.32 197.4, 143.01 194.95, 32 197.14 M286.57 197.14 C227.13 197.72, 168.44 196.99, 32 197.14 M32 197.14 C8.76 196.7, -1.86 185.44, 0 165.14 M32 197.14 C10.96 198.69, -1.49 186.63, 0 165.14 M0 165.14 C-2.26 114.95, -1.96 62.73, 0 32 M0 165.14 C0.54 129.9, 0.91 93.64, 0 32 M0 32 C-0.96 10.49, 10.78 0.81, 32 0 M0 32 C-1.76 11.59, 10.26 -1.79, 32 0" stroke="#1e1e1e" stroke-width="1" fill="none"></path></g><g transform="translate(107.42857142857116 525.4285714285714) rotate(0 73.27214813232422 10)"><text x="0" y="0" font-family="Virgil, Segoe UI Emoji" font-size="16px" fill="#1e1e1e" text-anchor="start" style="white-space: pre;" direction="ltr" dominant-baseline="text-before-edge">select from groups</text></g><g transform="translate(104.57142857142827 569.7142857142857) rotate(0 65.12813568115234 10)"><text x="0" y="0" font-family="Virgil, Segoe UI Emoji" font-size="16px" fill="#1e1e1e" text-anchor="start" style="white-space: pre;" direction="ltr" dominant-baseline="text-before-edge">add a new group</text></g><g stroke-linecap="round" transform="translate(1937.4285714285713 85.42857142857133) rotate(0 72.85714285714289 23.571428571428555)"><path d="M11.79 0 C38.99 0.38, 67.19 0.11, 133.93 0 M11.79 0 C58.99 0.39, 106.25 0.6, 133.93 0 M133.93 0 C141.21 0.07, 145.38 4.72, 145.71 11.79 M133.93 0 C141.42 0.77, 145.58 3.88, 145.71 11.79 M145.71 11.79 C144.97 19.45, 146.45 28.76, 145.71 35.36 M145.71 11.79 C145.66 19.44, 145.48 26.83, 145.71 35.36 M145.71 35.36 C146.31 42.76, 142.51 46.9, 133.93 47.14 M145.71 35.36 C145.7 44.2, 141.01 47.86, 133.93 47.14 M133.93 47.14 C97.97 47.07, 61.18 46.63, 11.79 47.14 M133.93 47.14 C98.85 47.05, 64.29 46.94, 11.79 47.14 M11.79 47.14 C3.62 46.57, -0.37 42.49, 0 35.36 M11.79 47.14 C3.91 46.22, 0.05 43.34, 0 35.36 M0 35.36 C0.55 28.39, 0.29 21.54, 0 11.79 M0 35.36 C-0.12 26.3, -0.27 17.48, 0 11.79 M0 11.79 C-0.14 3.75, 4.09 0.37, 11.79 0 M0 11.79 C-0.84 4.65, 3.52 -0.12, 11.79 0" stroke="#1e1e1e" stroke-width="1" fill="none"></path></g><g transform="translate(1970.733636038644 98.99999999999989) rotate(0 39.55207824707031 10)"><text x="39.55207824707031" y="0" font-family="Virgil, Segoe UI Emoji" font-size="16px" fill="#1e1e1e" text-anchor="middle" style="white-space: pre;" direction="ltr" dominant-baseline="text-before-edge">group view</text></g><g stroke-linecap="round" transform="translate(1691.7142857142856 85.42857142857133) rotate(0 72.85714285714289 23.571428571428555)"><path d="M11.79 0 C46.42 -0.05, 79.43 -0.72, 133.93 0 M11.79 0 C38.68 -0.18, 65.89 -0.24, 133.93 0 M133.93 0 C141.12 -0.87, 146.58 3.6, 145.71 11.79 M133.93 0 C142.67 0.99, 144.77 3.21, 145.71 11.79 M145.71 11.79 C144.92 18.55, 144.98 23.68, 145.71 35.36 M145.71 11.79 C145.83 19.14, 145.43 27.27, 145.71 35.36 M145.71 35.36 C144.91 42.45, 140.99 47.36, 133.93 47.14 M145.71 35.36 C144.89 42.5, 141.94 47.19, 133.93 47.14 M133.93 47.14 C94.72 47.45, 55.03 46.05, 11.79 47.14 M133.93 47.14 C92.98 47, 52.3 46.93, 11.79 47.14 M11.79 47.14 C3.58 46.83, 0.03 42.46, 0 35.36 M11.79 47.14 C3.98 48.07, -0.43 43.13, 0 35.36 M0 35.36 C-0.28 29.05, -0.41 24.01, 0 11.79 M0 35.36 C0.1 28.99, -0.4 23.5, 0 11.79 M0 11.79 C0.23 4.61, 3.76 0.22, 11.79 0 M0 11.79 C-0.53 4.02, 4.77 -0.18, 11.79 0" stroke="#1e1e1e" stroke-width="1" fill="none"></path></g><g transform="translate(1732.6673605782644 98.99999999999989) rotate(0 31.904067993164062 10)"><text x="31.904067993164062" y="0" font-family="Virgil, Segoe UI Emoji" font-size="16px" fill="#1e1e1e" text-anchor="middle" style="white-space: pre;" direction="ltr" dominant-baseline="text-before-edge">list view</text></g><g stroke-linecap="round" transform="translate(1677.4285714285716 166.8571428571429) rotate(0 229.28571428571422 23.5714285714285)"><path d="M11.79 0 C159.94 -0.57, 308.95 -0.74, 446.79 0 M11.79 0 C170.59 0.9, 329.07 1.07, 446.79 0 M446.79 0 C454.01 0.36, 459.44 3.94, 458.57 11.79 M446.79 0 C454.19 0.77, 459.05 4.84, 458.57 11.79 M458.57 11.79 C458.53 16.17, 458.94 21.93, 458.57 35.36 M458.57 11.79 C458.26 20.09, 458.74 27.74, 458.57 35.36 M458.57 35.36 C458.47 44.01, 454.58 47.03, 446.79 47.14 M458.57 35.36 C458.33 42.51, 454.16 47.71, 446.79 47.14 M446.79 47.14 C329.94 47.56, 213.77 47.56, 11.79 47.14 M446.79 47.14 C298.81 46.3, 151.01 46.56, 11.79 47.14 M11.79 47.14 C3.8 46.79, 0.61 43.7, 0 35.36 M11.79 47.14 C4.4 47.47, -0.58 43.15, 0 35.36 M0 35.36 C-0.64 26.23, -0.68 18.76, 0 11.79 M0 35.36 C0.05 27.06, 0.49 19.65, 0 11.79 M0 11.79 C0.85 3.43, 3.74 0.01, 11.79 0 M0 11.79 C-0.6 4.25, 3.6 -0.49, 11.79 0" stroke="#1e1e1e" stroke-width="1" fill="none"></path></g><g transform="translate(1694.5714285714284 182.57142857142856) rotate(0 213.11866760253906 8.897966917592527)"><text x="0" y="0" font-family="Virgil, Segoe UI Emoji" font-size="14.236747068148038px" fill="#1e1e1e" text-anchor="start" style="white-space: pre;" direction="ltr" dominant-baseline="text-before-edge">unique name, bucket name, blah blah, group, total size maybe</text></g><g stroke-linecap="round" transform="translate(1680.2857142857142 231.14285714285722) rotate(0 229.28571428571422 23.5714285714285)"><path d="M11.79 0 C131.25 -0.37, 250.61 0.37, 446.79 0 M11.79 0 C116.55 -0.56, 221.12 -0.52, 446.79 0 M446.79 0 C454.29 0.19, 457.76 3.16, 458.57 11.79 M446.79 0 C453.82 0.85, 459.49 3.35, 458.57 11.79 M458.57 11.79 C458.11 20.8, 459.04 28.52, 458.57 35.36 M458.57 11.79 C458.13 20.45, 458.73 29.15, 458.57 35.36 M458.57 35.36 C457.86 43.24, 454.81 47.07, 446.79 47.14 M458.57 35.36 C457.83 42.41, 455.15 47.69, 446.79 47.14 M446.79 47.14 C323.57 47.91, 200.6 47.89, 11.79 47.14 M446.79 47.14 C299.86 46.61, 152.81 46.42, 11.79 47.14 M11.79 47.14 C4.39 47.96, 0.31 43.96, 0 35.36 M11.79 47.14 C3.31 47.43, 0.33 42.25, 0 35.36 M0 35.36 C0.82 27.45, 0.26 20.52, 0 11.79 M0 35.36 C0.12 27.37, 0.43 18.94, 0 11.79 M0 11.79 C0.87 3.94, 4.07 -0.42, 11.79 0 M0 11.79 C-0.12 3.64, 4.89 0.04, 11.79 0" stroke="#1e1e1e" stroke-width="1" fill="none"></path></g><g transform="translate(1697.428571428571 246.8571428571429) rotate(0 213.11866760253906 8.897966917592527)"><text x="0" y="0" font-family="Virgil, Segoe UI Emoji" font-size="14.236747068148038px" fill="#1e1e1e" text-anchor="start" style="white-space: pre;" direction="ltr" dominant-baseline="text-before-edge">unique name, bucket name, blah blah, group, total size maybe</text></g><g stroke-linecap="round" transform="translate(1681.7142857142856 296.8571428571429) rotate(0 229.28571428571422 23.5714285714285)"><path d="M11.79 0 C166.5 1.14, 322.43 1, 446.79 0 M11.79 0 C105.98 -0.37, 200.02 -0.48, 446.79 0 M446.79 0 C455.45 -0.03, 458.8 4.57, 458.57 11.79 M446.79 0 C454.84 0.58, 459.52 4.32, 458.57 11.79 M458.57 11.79 C459.08 16.17, 458.97 21.08, 458.57 35.36 M458.57 11.79 C458.45 19.03, 458.69 27.19, 458.57 35.36 M458.57 35.36 C459.08 43.71, 454.99 46.75, 446.79 47.14 M458.57 35.36 C459.34 42.23, 454.69 47.11, 446.79 47.14 M446.79 47.14 C294.42 48.21, 141.72 48.35, 11.79 47.14 M446.79 47.14 C352.8 47.3, 258.92 47.31, 11.79 47.14 M11.79 47.14 C3.65 46.95, 0.71 44.03, 0 35.36 M11.79 47.14 C4.44 47.82, -0.23 42.82, 0 35.36 M0 35.36 C-0.26 25.15, 0.61 16.87, 0 11.79 M0 35.36 C-0.18 28.87, -0.08 23.26, 0 11.79 M0 11.79 C0.5 3.22, 3.82 0.61, 11.79 0 M0 11.79 C-0.7 4.02, 4.93 -0.91, 11.79 0" stroke="#1e1e1e" stroke-width="1" fill="none"></path></g><g transform="translate(1698.8571428571424 312.57142857142856) rotate(0 213.11866760253906 8.897966917592498)"><text x="0" y="0" font-family="Virgil, Segoe UI Emoji" font-size="14.236747068148038px" fill="#1e1e1e" text-anchor="start" style="white-space: pre;" direction="ltr" dominant-baseline="text-before-edge">unique name, bucket name, blah blah, group, total size maybe</text></g><g transform="translate(2076 368.28571428571433) rotate(0 32.88002014160156 10)"><text x="0" y="0" font-family="Virgil, Segoe UI Emoji" font-size="16px" fill="#1e1e1e" text-anchor="start" style="white-space: pre;" direction="ltr" dominant-baseline="text-before-edge">...............</text></g></svg>